# xmcd
#
# Track frame offsets:
#	150
#	12729
#	24849
#	36667
#	49298
#	59905
#	72168
#	84259
#	96399
#	108921
#	122175
#	134973
#	147052
#	158626
#	170949
#	183475
#	196272
#	209251
#	221254
#	232796
#	246430
#	258971
#	271761
#	284501
#
# Disc length: 4070 seconds
#
# Revision: 1
# Processed by: cddbd v1.5.2PL0 Copyright (c) Steve Scherf et al.
# Submitted via: audiograbber 1.83.01
#
DISCID=710fe418
DTITLE=York Brothers - Long Time Gone
DYEAR=2006
DGENRE=Country
TTITLE0=Motor City Boogie
TTITLE1=I'm Coming Home to Stay
TTITLE2=Kill Her With Kindness
TTITLE3=Long Time Gone
TTITLE4=Gravy Train
TTITLE5=Life Can Never be the Same
TTITLE6=Let's Don't Sleep Again
TTITLE7=Long Gone
TTITLE8=You Won My Heart With a Song
TTITLE9=New Mississippi River Blues
TTITLE10=If I Knew I'd Never Lose You
TTITLE11=It's Ain't No Good
TTITLE12=Let's Talk Our Thoughts Over
TTITLE13=Traveling Man (Take 6)
TTITLE14=You're the One
TTITLE15=Nothing but the Blues
TTITLE16=Road of Sadness
TTITLE17=I Don't Want No Part of You
TTITLE18=Mountain Rosa Lee
TTITLE19=They Laid My Darling Away
TTITLE20=Riding and Singing My Song
TTITLE21=I Wish I Had Known
TTITLE22=Motor City Boogie
TTITLE23=Traveling Man (Take 1)
EXTD=
EXTT0=
EXTT1=
EXTT2=
EXTT3=
EXTT4=
EXTT5=
EXTT6=
EXTT7=
EXTT8=
EXTT9=
EXTT10=
EXTT11=
EXTT12=
EXTT13=
EXTT14=
EXTT15=
EXTT16=
EXTT17=
EXTT18=
EXTT19=
EXTT20=
EXTT21=
EXTT22=
EXTT23=
PLAYORDER=
